<?xml version="1.0" standalone="no"?>
<!DOCTYPE svg PUBLIC "-//W3C//DTD SVG 20010904//EN"
 "http://www.w3.org/TR/2001/REC-SVG-20010904/DTD/svg10.dtd">
<svg version="1.0" xmlns="http://www.w3.org/2000/svg"
 width="240.000000pt" height="240.000000pt" viewBox="0 0 240.000000 240.000000"
 preserveAspectRatio="xMidYMid meet">
<metadata>
Created by potrace 1.11, written by Peter Selinger 2001-2013
</metadata>
<g transform="translate(0.000000,240.000000) scale(0.100000,-0.100000)"
fill="#000000" stroke="none">
<path d="M810 1856 c-211 -55 -424 -188 -602 -375 -88 -92 -170 -193 -181
-223 -4 -12 16 -47 64 -110 157 -210 330 -354 542 -452 87 -41 218 -82 296
-93 152 -22 345 4 466 62 128 62 128 62 -61 61 -188 -1 -240 4 -338 34 -98 31
-184 73 -283 139 -128 86 -316 271 -360 355 -14 27 -13 30 23 84 50 71 173
197 249 254 114 85 251 158 415 223 92 36 125 54 105 56 -6 0 -64 2 -130 4
-100 3 -134 0 -205 -19z"/>
<path d="M1229 1806 c-2 -2 -22 -7 -44 -10 -87 -14 -273 -88 -291 -117 -5 -9
8 -10 52 -4 97 14 263 9 354 -9 223 -45 392 -137 566 -311 113 -112 184 -202
184 -232 0 -26 -81 -132 -157 -207 -125 -121 -333 -245 -546 -326 -48 -18 -86
-38 -84 -44 7 -22 91 -37 177 -33 172 9 406 110 590 256 138 110 350 346 350
391 0 22 -102 156 -183 239 -215 220 -413 335 -686 397 -31 7 -276 16 -282 10z"/>
<path d="M1079 1531 c-66 -21 -133 -65 -179 -117 -107 -122 -106 -311 1 -428
93 -102 239 -149 381 -122 122 23 228 97 283 198 25 45 30 66 32 135 1 45 -2
85 -7 88 -4 3 -21 0 -37 -6 -70 -26 -179 -3 -225 48 -29 31 -46 86 -41 123 3
19 6 49 7 65 l1 30 -80 2 c-55 2 -97 -3 -136 -16z"/>
</g>
</svg>
